<?xml version="1.0" encoding="UTF-8" standalone="no"?>
<!DOCTYPE svg PUBLIC "-//W3C//DTD SVG 1.1//EN" "http://www.w3.org/Graphics/SVG/1.1/DTD/svg11.dtd">
<svg width="100%" height="100%" viewBox="0 0 512 512" version="1.1" xmlns="http://www.w3.org/2000/svg" xmlns:xlink="http://www.w3.org/1999/xlink" xml:space="preserve" xmlns:serif="http://www.serif.com/" style="fill-rule:evenodd;clip-rule:evenodd;stroke-linejoin:round;stroke-miterlimit:2;">
    <path d="M384,-0L512,128L512,512L128,512L-0,384L0,0L384,-0Z"/>
    <g transform="matrix(1,0,0,1,-32,1.98952e-13)">
        <g opacity="0.5">
            <g transform="matrix(1.33333,0,0,2,-106.667,-320)">
                <path d="M272,368L176,368L128,336L128,208L224,208L272,240L176,240L176,336L224,336L224,304L176,272L272,272L272,368Z" style="fill:rgb(255,0,255);"/>
            </g>
            <g transform="matrix(1.33333,0,0,0.266667,85.3333,125.867)">
                <path d="M128,368L128,-112L224,-112L272,128L176,128L176,368L224,368L272,608L272,1088L176,1088L128,848L224,848L224,608L176,608L128,368Z" style="fill:rgb(255,0,255);"/>
            </g>
        </g>
    </g>
    <g transform="matrix(1,0,0,1,32,1.42109e-13)">
        <g opacity="0.5">
            <g transform="matrix(1.33333,0,0,2,-106.667,-320)">
                <path d="M272,368L176,368L128,336L128,208L224,208L272,240L176,240L176,336L224,336L224,304L176,272L272,272L272,368Z" style="fill:rgb(0,255,255);"/>
            </g>
            <g transform="matrix(1.33333,0,0,0.266667,85.3333,125.867)">
                <path d="M128,368L128,-112L224,-112L272,128L176,128L176,368L224,368L272,608L272,1088L176,1088L128,848L224,848L224,608L176,608L128,368Z" style="fill:rgb(0,255,255);"/>
            </g>
        </g>
    </g>
    <g>
        <g transform="matrix(1.33333,0,0,2,-106.667,-320)">
            <path d="M272,368L176,368L128,336L128,208L224,208L272,240L176,240L176,336L224,336L224,304L176,272L272,272L272,368Z" style="fill:white;"/>
        </g>
        <g transform="matrix(1.33333,0,0,0.266667,85.3333,125.867)">
            <path d="M128,368L128,-112L224,-112L272,128L176,128L176,368L224,368L272,608L272,1088L176,1088L128,848L224,848L224,608L176,608L128,368Z" style="fill:white;"/>
        </g>
    </g>
</svg>
